<svg id="katman_1" xmlns="http://www.w3.org/2000/svg" viewBox="0 0 426.8 76.5"><style>.st0,.st1{fill-rule:evenodd;clip-rule:evenodd;fill:#676567}.st1{fill:#fff}</style><path class="st0" d="M283.7 49.1c-1.5-.9-3-1.6-4.8-1.6h-26.2v4.3h34.6c1.7 0 3.3-.7 4.7-1.6v26.2h-87.5c1.5-1.3 2.9-2.8 2.9-4.9V4.9c0-2.1-1.4-3.7-2.9-4.9H292v23.7c-1.4-.9-3-1.6-4.7-1.6h-34.6v5h26.2c1.8 0 3.3-.6 4.8-1.6v23.6zm83.6 12h-19.4L344 72.5c-.1.4-.2.8-.2 1.3 0 .9.3 1.8.8 2.6H300c1-1 1.7-2.1 2.2-3.4L326 8.8c.6-1.6 1.1-3.3 1.1-4.9 0-1.4-.5-2.7-1.1-3.8h72.1c-.6 1.3-1.1 2.5-1.1 3.9 0 1.7.5 3.3 1.1 4.9l26.3 64.2c.5 1.4 1.3 2.4 2.4 3.4h-55.7c.4-.9.6-1.9.6-2.9 0-.6-.1-1.1-.3-1.6l-4.1-10.9zM122.9 48.3v23.1c0 2.1 1.3 3.6 2.8 4.9H72.9c1.5-1.3 2.8-2.8 2.8-4.9V5c0-2.1-1.4-3.6-2.8-5h52.8c-1.5 1.3-2.8 2.8-2.8 5v23l15.3-23c.4-.7.8-1.5.8-2.4s-.4-1.8-.8-2.6h52.1c-2.2 1.2-4.2 2.9-5.6 5l-18.3 26.6 25.2 39.9c1.3 2.1 3.2 3.7 5.4 4.9h-60.7c.4-.6 1-1.3 1-2.1 0-1-.5-2-1-2.8l-13.4-23.2zM0 0h54.1c-1.5 1.3-2.8 2.8-2.8 4.9v66.5c0 2.1 1.3 3.6 2.8 4.9H0c1.5-1.3 2.8-2.8 2.8-4.9V4.9C2.8 2.8 1.5 1.3 0 0z"/><path class="st1" d="M352.9 45.7h8.6L357 33.5l-4.1 12.2z"/></svg>